<svg width="20" height="24" viewBox="0 0 20 24" fill="none" xmlns="http://www.w3.org/2000/svg">
<path d="M17.1398 11.7888C15.6509 15.3331 6.12668 21.0278 6.12668 21.0278C6.12668 21.0278 3.03937 9.97961 4.52826 6.43528C4.87437 5.58444 5.38333 4.81036 6.02566 4.15789C6.66798 3.50541 7.43091 2.9875 8.27027 2.63413C9.10963 2.28077 10.0087 2.09897 10.9155 2.09928C11.8223 2.09959 12.7188 2.28199 13.553 2.63591C14.3872 2.98984 15.1426 3.50827 15.7755 4.16118C16.4083 4.81408 16.9061 5.5885 17.2398 6.43957C17.5736 7.29065 17.7368 8.20148 17.7199 9.11932C17.7031 10.0372 17.5065 10.9438 17.1416 11.7867L17.1398 11.7888Z" fill="url(#paint0_linear)"/>
<path d="M16.6937 11.7298C15.2974 15.0544 6.36263 20.3971 6.36263 20.3971C6.36263 20.3971 3.46641 10.0336 4.86273 6.70899C5.53163 5.11643 6.79629 3.85363 8.37849 3.19839C9.9607 2.54316 11.7309 2.54916 13.2995 3.21508C14.8682 3.881 16.1069 5.15229 16.7432 6.74928C17.3794 8.34627 17.3611 10.1381 16.6922 11.7307L16.6937 11.7298Z" fill="#E97450"/>
<path d="M13.9378 9.99236C14.6359 8.33 13.8776 6.42026 12.244 5.72683C10.6104 5.03341 8.7201 5.81888 8.02194 7.48124C7.32378 9.1436 8.08212 11.0533 9.71573 11.7468C11.3493 12.4402 13.2396 11.6547 13.9378 9.99236Z" fill="white"/>
<defs>
<linearGradient id="paint0_linear" x1="6093.22" y1="7696.72" x2="7294.99" y2="4865.53" gradientUnits="userSpaceOnUse">
<stop stop-color="#808080" stop-opacity="0.25"/>
<stop offset="0.54" stop-color="#808080" stop-opacity="0.12"/>
<stop offset="1" stop-color="#808080" stop-opacity="0.1"/>
</linearGradient>
</defs>
</svg>
