<svg width="50" height="51" viewBox="0 0 50 51" fill="none" xmlns="http://www.w3.org/2000/svg">
<ellipse cx="25" cy="25.1469" rx="25" ry="25.1469" fill="#F56920"/>
<path d="M14.2917 12.175C14.2917 12.5754 13.9671 12.9 13.5667 12.9H10.6417C10.2413 12.9 9.91667 12.5754 9.91667 12.175C9.91667 11.7746 10.2413 11.45 10.6417 11.45H13.5667C13.9671 11.45 14.2917 11.7746 14.2917 12.175ZM25.9583 21.6C23.5463 21.6 21.5833 23.5517 21.5833 25.95C21.5833 28.3483 23.5463 30.3 25.9583 30.3C28.3704 30.3 30.3333 28.3483 30.3333 25.95C30.3333 23.5517 28.3704 21.6 25.9583 21.6ZM40 14.35C41.1046 14.35 42 15.2454 42 16.35V37C42 38.1046 41.1046 39 40 39H9C7.89543 39 7 38.1046 7 37V16.35C7 15.2454 7.89543 14.35 9 14.35H15.6479C16.6235 14.35 17.5335 13.8657 18.0746 13.0581L19.5308 10.8862C19.9022 10.3323 20.5251 10 21.192 10H30.7247C31.3915 10 32.0145 10.3323 32.3859 10.8862L33.8421 13.0581C34.3831 13.8657 35.2931 14.35 36.2688 14.35H40ZM14.2917 20.15C14.2917 19.3496 13.6398 18.7 12.8333 18.7C12.0269 18.7 11.375 19.3496 11.375 20.15C11.375 20.9504 12.0269 21.6 12.8333 21.6C13.6398 21.6 14.2917 20.9504 14.2917 20.15ZM33.25 25.95C33.25 21.9466 29.9848 18.7 25.9583 18.7C21.9319 18.7 18.6667 21.9466 18.6667 25.95C18.6667 29.9535 21.9319 33.2 25.9583 33.2C29.9848 33.2 33.25 29.9535 33.25 25.95Z" fill="#FAFAFA"/>
</svg>
