<svg width="40" height="40" viewBox="0 0 40 40" fill="none" xmlns="http://www.w3.org/2000/svg">
<path d="M19.1117 14.0733L20.5633 19.7917L24.89 8.35667L13.3333 12.645L19.1117 14.0733ZM20 0C12.6367 0 6.66667 5.79833 6.66667 12.95C6.66667 20.2133 12.5 25.1783 20 31.6667C27.5 25.1783 33.3333 20.2133 33.3333 12.95C33.3333 5.79833 27.3633 0 20 0ZM20 22.8717C14.5983 22.8717 10.2233 18.5383 10.2233 13.195C10.2233 7.85167 14.5983 3.51833 20 3.51833C25.4017 3.51833 29.7767 7.85167 29.7767 13.195C29.7767 18.5383 25.4017 22.8717 20 22.8717ZM33.3333 26.6667H30.3317C29.2833 27.7883 28.1383 28.8917 26.93 30H31.2717L32.105 31.6667H25.075L23.165 33.3333H24.8733L26.3033 36.6667H13.825L15.255 33.3333H16.8333C16.185 32.7733 15.5467 32.2183 14.9217 31.6667H11.5967L9.91167 30H13.07C11.8617 28.8933 10.72 27.7883 9.67167 26.6667H6.66667L0 40H40L33.3333 26.6667ZM12.01 36.6667H5.39333L8.33333 30.7867L10.86 33.3333H13.4417L12.01 36.6667ZM26.69 33.3333H32.94L34.6067 36.6667H28.12L26.69 33.3333Z" fill="#F56920"/>
</svg>
