<svg width="36" height="37" viewBox="0 0 36 37" fill="none" xmlns="http://www.w3.org/2000/svg">
<path d="M34.8882 15.6868C34.8874 15.686 34.8866 15.6851 34.8858 15.6843L20.2598 0.97296C19.6364 0.345599 18.8075 0 17.9259 0C17.0442 0 16.2153 0.345324 15.5916 0.972685L0.973332 15.6766C0.968408 15.6816 0.963485 15.6868 0.958561 15.6917C-0.321659 16.9869 -0.319471 19.0883 0.964852 20.3802C1.55162 20.9707 2.32659 21.3127 3.15518 21.3484C3.18882 21.3517 3.22274 21.3534 3.25694 21.3534H3.83988V32.1801C3.83988 34.3224 5.57282 36.0656 7.70324 36.0656H13.4254C14.0053 36.0656 14.4758 35.5926 14.4758 35.009V26.5209C14.4758 25.5432 15.2664 24.748 16.2383 24.748H19.6134C20.5853 24.748 21.3759 25.5432 21.3759 26.5209V35.009C21.3759 35.5926 21.8461 36.0656 22.4263 36.0656H28.1485C30.2789 36.0656 32.0118 34.3224 32.0118 32.1801V21.3534H32.5524C33.4338 21.3534 34.2626 21.0081 34.8866 20.3807C36.1723 19.0866 36.1728 16.9817 34.8882 15.6868Z" fill="#F56920"/>
</svg>
