<svg width="36" height="37" viewBox="0 0 36 37" fill="none" xmlns="http://www.w3.org/2000/svg">
<path d="M14.6964 30.4998C17.7222 30.4998 20.5174 29.5723 22.8515 28.0071L31.2947 36.4999C31.9578 37.1666 33.0528 37.1666 33.7441 36.4999L35.3867 34.8477C36.0494 34.181 36.0494 33.0796 35.3867 32.3839L26.9146 23.9201C28.4704 21.5722 29.3928 18.7606 29.3928 15.7171C29.3928 7.57207 22.7939 0.934326 14.6964 0.934326C6.59898 0.934326 0 7.57207 0 15.7171C0 23.8618 6.57016 30.4998 14.6964 30.4998ZM14.6964 6.73149C19.624 6.73149 23.6295 10.7605 23.6295 15.7171C23.6295 20.6737 19.624 24.7027 14.6964 24.7027C9.7688 24.7027 5.7633 20.6737 5.7633 15.7171C5.7633 10.7605 9.7688 6.73149 14.6964 6.73149Z" fill="#F56920"/>
</svg>
