<svg width="36" height="37" viewBox="0 0 36 37" fill="none" xmlns="http://www.w3.org/2000/svg">
<path d="M32.5542 14.5153H31.7929C31.5457 13.7369 31.2337 12.9808 30.8599 12.2543L31.399 11.7121C32.7061 10.3987 32.6711 8.29396 31.3995 7.01617L29.809 5.41646C28.5395 4.13775 26.4466 4.1007 25.1405 5.41597L24.601 5.95864C23.8788 5.58277 23.127 5.26889 22.3533 5.02016V4.2544C22.3533 2.42372 20.8726 0.934326 19.0525 0.934326H16.8023C14.9823 0.934326 13.5016 2.42372 13.5016 4.2544V5.02016C12.7279 5.26882 11.9761 5.5827 11.2539 5.95864L10.7149 5.41646C9.41142 4.1038 7.3186 4.13458 6.04645 5.41604L4.45588 7.01581C3.18471 8.29304 3.14795 10.3979 4.45546 11.7117L4.99497 12.2544C4.62122 12.9809 4.30924 13.7369 4.06197 14.5153H3.30075C1.48077 14.5153 0 16.0047 0 17.8353V20.0989C0 21.9296 1.48077 23.419 3.30075 23.419H4.06197C4.30924 24.1973 4.62122 24.9534 4.99497 25.6799L4.45588 26.2221C3.14879 27.5355 3.1838 29.6403 4.45546 30.9181L6.04589 32.5178C7.31545 33.7965 9.40834 33.8335 10.7144 32.5183L11.2539 31.9756C11.9761 32.3515 12.7279 32.6653 13.5016 32.9141V33.6798C13.5016 35.5105 14.9824 36.9999 16.8024 36.9999H19.0526C20.8726 36.9999 22.3534 35.5105 22.3534 33.6798V32.9141C23.1271 32.6654 23.8789 32.3515 24.6011 31.9756L25.1401 32.5178C26.4436 33.8304 28.5363 33.7996 29.8085 32.5182L31.3991 30.9183C32.6703 29.6411 32.707 27.5362 31.3995 26.2224L30.86 25.6797C31.2338 24.9533 31.5457 24.1973 31.793 23.4188H32.5542C34.3742 23.4188 35.855 21.9294 35.855 20.0987V17.8352C35.8549 16.0047 34.3741 14.5153 32.5542 14.5153ZM17.9275 26.8142C13.6258 26.8142 10.1262 23.294 10.1262 18.9671C10.1262 14.6402 13.6258 11.12 17.9275 11.12C22.2291 11.12 25.7287 14.6402 25.7287 18.9671C25.7287 23.294 22.2291 26.8142 17.9275 26.8142Z" fill="#F56920"/>
</svg>
